<svg width="640" height="480" xmlns="http://www.w3.org/2000/svg" xmlns:svg="http://www.w3.org/2000/svg">
 <!-- Created with SVG-edit - http://svg-edit.googlecode.com/ -->
 <g>
  <title>Layer 1</title>
  <path d="m210,268c0,-1.080505 -0.000046,-1.903992 0,-2.574677c0.000092,-1.168488 -0.001801,-2.044281 0.020828,-2.987823c0.011871,-0.494934 0.048111,-1.526886 0.145844,-2.604156c0.101639,-1.120361 0.186951,-1.69101 0.269333,-2.269348c0.16748,-1.17569 0.267365,-1.768677 0.365326,-2.365326c0.295441,-1.799408 0.39801,-2.40036 0.503174,-3.003174c0.212296,-1.217026 0.328827,-1.832031 0.452667,-2.452667c0.125458,-0.628708 0.560822,-2.564713 0.728165,-3.224167c0.168304,-0.663223 0.345093,-1.324265 0.535492,-1.97699c0.372772,-1.277908 0.562134,-1.893509 0.979172,-3.041672c0.381943,-1.051559 0.595474,-1.53302 0.979172,-2.458328c0.184814,-0.445679 0.566071,-1.312805 0.999496,-2.663177c0.147827,-0.460587 0.395691,-1.414566 0.646667,-2.38916c0.127182,-0.493881 0.535156,-1.991287 0.696167,-2.489166c0.323303,-0.999741 0.505905,-1.492844 0.88916,-2.464172c0.189606,-0.48053 0.786652,-1.870544 1.188004,-2.750656c0.195526,-0.428772 0.593765,-1.258728 0.944168,-2.080841c0.509933,-1.196396 0.776794,-2.003342 1.03183,-2.804504c0.254303,-0.798843 0.350189,-1.209961 0.792007,-2.399994c0.298676,-0.804504 0.652405,-1.581604 1.007996,-2.328003c0.335464,-0.704147 0.951706,-1.909729 1.221329,-2.496002c0.310257,-0.674637 0.664093,-1.539215 1.104004,-2.675995c0.267303,-0.690735 0.552628,-1.455765 0.858002,-2.274002c0.318634,-0.85376 0.641693,-1.726105 0.966003,-2.597992c0.317703,-0.854111 0.618179,-1.674225 1.175995,-3.128006c0.233078,-0.607437 0.439255,-1.133972 0.628494,-1.585495c0.428787,-1.023071 0.871506,-1.914505 1.2715,-2.714508c0.300003,-0.599991 0.773911,-1.612869 1.200012,-2.363998c0.471527,-0.831207 1.005005,-1.405838 1.374664,-2.235992c0.348907,-0.783554 0.387054,-1.852417 1.025497,-2.4785c0.518402,-0.508377 0.973465,-0.789337 1.285172,-1.605499c0.272385,-0.713211 0.898148,-1.647797 1.350662,-2.141342c0.659958,-0.719788 1.34317,-1.353836 2.03067,-2.041336c0.617325,-0.617325 0.872803,-1.440094 1.418655,-2.049332c0.602783,-0.672791 0.914673,0.549332 0.914673,1.363342c0,0.927322 -0.017532,1.799515 0.000168,2.674164c0.018005,0.889694 0.214951,1.880646 0.425171,2.4785c0.282349,0.802979 0.483063,1.806107 0.627335,2.599991c0.183578,1.010162 0.557999,1.800003 0.947327,2.600006c0.389328,0.800003 0.761414,1.589691 0.916,2.401337c0.157486,0.82692 0.226639,1.771545 0.441162,2.551331c0.228165,0.829391 0.629196,1.886581 0.942841,2.590164c0.383469,0.860214 0.82756,1.644592 1.179169,2.457169c0.255981,0.591553 0.481232,1.594604 0.519501,2.514664c0.04097,0.984741 0.2052,1.814651 0.522156,2.506165c0.454208,0.990997 0.908966,1.763641 1.122009,2.379166c0.339066,0.979614 0.316055,1.815353 0.578491,2.800171c0.223175,0.837463 0.542358,1.476791 0.694672,2.483841c0.122681,0.811081 0.106903,1.646194 0.367996,2.630661c0.236267,0.8909 0.599243,1.884644 0.716003,2.685333c0.087433,0.599518 0.378387,1.585861 0.647339,2.342834c0.362427,1.020035 0.577087,1.977234 0.852661,2.657166c0.337128,0.831802 0.497009,1.695496 0.5,2.636002c0.002686,0.847992 -0.050858,1.754532 0.352661,2.606827c0.383774,0.810593 0.645081,1.514328 0.647339,2.409836c0.002167,0.863342 -0.030594,1.849091 0.352661,2.65184c0.425293,0.890778 0.533371,1.726669 0.814011,2.528824c0.294205,0.840942 0.745697,1.65387 0.858658,2.413345c0.136932,0.92067 0.330688,1.700546 0.549347,2.491989c0.308594,1.117035 0.335419,1.845886 0.446167,2.803009c0.11734,1.014114 0.418213,1.705032 0.626495,2.452988c0.286316,1.028244 -0.065552,2.093872 0.437988,2.721344c0.566254,0.705627 0.822571,1.172394 0.950684,1.930664c0.145508,0.861084 0.671631,1.682831 0.911316,2.605164c0.183716,0.706909 0.41098,1.751862 0.62735,2.497498c0.265625,0.915344 0.283966,1.783844 0.777985,2.546173c0.524261,0.80899 1.563629,0.549835 1.647339,-0.320831c0.088226,-0.917755 -0.138855,-1.689484 0,-2.617493c0.143585,-0.959656 0.64917,-1.558411 0.878662,-2.55719c0.181183,-0.788605 0.258636,-1.810333 0.557343,-2.610657c0.244781,-0.655853 0.660309,-1.612289 0.97467,-2.425323c0.222595,-0.575729 0.745087,-1.769913 1.073334,-2.362671c0.330475,-0.596802 0.884888,-1.43132 1.494476,-2.480011c0.399841,-0.687866 0.735718,-1.366394 1.121521,-2.342651c0.315399,-0.79808 0.480743,-1.360825 0.899994,-2.412003c0.286896,-0.71936 0.715393,-1.613129 1.100006,-2.587997c0.208374,-0.528107 0.479553,-1.361298 0.899994,-2.412003c0.286194,-0.715179 0.707458,-1.558517 1.099823,-2.366669c0.386688,-0.796463 0.667694,-1.389206 0.847504,-2.40451c0.149811,-0.845978 0.252167,-1.823013 0.488678,-2.620819c0.245789,-0.829071 0.660645,-1.854797 0.963989,-2.549347c0.296753,-0.679428 0.723389,-1.638824 0.989349,-2.461319c0.278381,-0.860855 0.460602,-1.762054 0.557983,-2.6595c0.094086,-0.866928 0.051331,-1.441238 0.409851,-2.65184c0.205536,-0.694031 0.64859,-1.617157 0.94281,-2.405334c0.30603,-0.819794 0.694824,-1.882858 0.995514,-2.585663c0.263947,-0.616959 0.570038,-1.590469 0.788513,-2.345673c0.278259,-0.961853 0.575195,-1.650604 0.915985,-2.595169c0.303192,-0.840363 0.937836,-1.614197 0.998657,-2.406158c0.071167,-0.926605 -0.029358,-1.878525 0.167999,-2.781342c0.164948,-0.754547 0.314209,-1.367188 0.634674,-2.282669c0.353882,-1.010941 0.996399,-1.68927 1.177826,-2.550659c0.185547,-0.880905 -0.090271,-1.84436 0.30484,-2.70134c0.338715,-0.734665 0.615387,-1.46402 0.800018,-2.399994c0.159088,-0.806488 0.637299,-1.523468 0.858826,-2.645996c0.178345,-0.903687 -0.111084,-1.622559 0.223816,-2.585999c0.271729,-0.781693 0.757751,-1.522644 0.833496,-2.388336c0.083649,-0.955917 0.429108,-1.617584 0.801178,-2.379669c0.391632,-0.802139 0.795166,-1.600418 1.298676,-2.598495c0.297913,-0.590561 0.622894,-1.37468 1.289337,-2.153503c0.551849,-0.644897 0.610657,0.317337 0.610657,1.154663c0,0.898666 -0.002441,1.761169 0,2.698669c0.002258,0.862518 -0.020966,1.524368 0.085327,2.53334c0.097839,0.928665 0.342163,1.708603 0.619171,2.414825c0.383606,0.978012 0.717285,1.779007 0.938324,2.656342c0.223663,0.887787 0.286346,1.792801 0.382507,2.6595c0.118927,1.072037 0.350006,1.771317 0.622009,2.631485c0.25238,0.798111 0.342224,1.60434 0.352661,2.604507c0.008331,0.799957 -0.030609,1.600616 0.004486,2.600006c0.028137,0.801224 0.286987,1.795868 0.57019,2.563995c0.349243,0.947311 0.383911,1.940704 0.482483,2.707504c0.115723,0.900223 0.372009,1.814316 0.517517,2.488495c0.145172,0.672531 0.364899,1.867569 0.40448,2.598328c0.056366,1.040359 -0.035858,1.850845 0.106171,2.641678c0.18219,1.014542 0.698303,1.71051 0.878662,2.774658c0.158325,0.934204 0.029388,1.646179 0.036011,2.625336c0.005341,0.789398 0.177246,1.82814 0.5,2.5c0.391632,0.815231 0.40979,1.71434 0.783997,2.615997c0.280975,0.677063 0.686127,1.535339 0.714661,2.400009c0.031769,0.962646 -0.080383,1.888092 0.005829,2.788498c0.083588,0.873291 0.570496,1.669281 0.828857,2.528824c0.222198,0.739258 0.001373,1.680725 0.166656,2.645844c0.144073,0.841217 0.887695,1.438828 1,2.236832c0.134491,0.95575 0.358398,1.702332 0.5,2.325668c0.225128,0.990967 0.373596,1.915955 0.5,2.916656c0.08078,0.63942 0.389008,1.629211 0.647339,2.441666c0.313385,0.98555 0.239868,1.812881 0.636658,2.714676c0.325806,0.740494 0.713745,1.585312 0.716003,2.449326c0.002441,0.936005 0.589111,1.378159 0.878662,2.100174c0.322052,0.80304 0.10849,1.601974 0.478516,2.534988c0.354919,0.894958 0.757935,1.560455 1.042816,2.498169c0.211273,0.695343 0.388031,1.424774 0.700012,2.481018c0.28894,0.978302 0.476074,1.584137 0.899994,2.654999c0.279846,0.706909 0.714661,1.594666 1.001343,2.451996l0.282654,0.91333l0.549347,0.634674" id="svg_4" stroke-linecap="null" stroke-linejoin="null" stroke-dasharray="null" stroke-width="5" stroke="#000000" fill="none"/>
  <ellipse stroke="#000000" ry="60.999997" rx="69.999997" id="svg_5" cy="230.000003" cx="261.000003" stroke-linecap="null" stroke-linejoin="null" stroke-dasharray="null" stroke-width="5" fill="none"/>
 </g>
</svg>
